<?xml version="1.0" standalone="no"?>
<!DOCTYPE svg PUBLIC "-//W3C//DTD SVG 20010904//EN"
 "http://www.w3.org/TR/2001/REC-SVG-20010904/DTD/svg10.dtd">
<svg version="1.0" xmlns="http://www.w3.org/2000/svg"
 width="700.000000pt" height="700.000000pt" viewBox="0 0 700.000000 700.000000"
 preserveAspectRatio="xMidYMid meet">
<metadata>
Created by potrace 1.11, written by Peter Selinger 2001-2013
</metadata>
<g transform="translate(0.000000,700.000000) scale(0.100000,-0.100000)"
fill="#000000" stroke="none">
<path d="M2465 6318 c-77 -10 -156 -50 -202 -102 -145 -167 -127 -457 52 -821
51 -105 169 -301 195 -325 3 -3 25 -30 50 -60 56 -69 147 -158 223 -217 53
-43 69 -63 48 -63 -19 0 -105 -75 -149 -131 l-47 -60 -125 -1 c-107 0 -198
-10 -311 -33 -69 -14 -195 -61 -294 -110 -126 -63 -238 -143 -344 -247 -127
-126 -175 -198 -353 -528 -20 -36 -66 -121 -103 -190 -146 -271 -283 -448
-490 -635 -49 -45 -166 -119 -230 -147 -82 -36 -127 -47 -215 -51 -41 -3 -84
-8 -95 -13 -18 -7 -64 -52 -66 -64 0 -3 -2 -14 -4 -25 -8 -37 7 -85 35 -111
15 -14 65 -46 111 -71 70 -38 479 -259 624 -338 22 -12 93 -50 158 -85 l117
-63 -6 -36 c-4 -20 -10 -45 -14 -56 -13 -35 -4 -217 14 -280 33 -113 106 -240
170 -299 60 -53 107 -87 161 -114 242 -120 559 -63 752 136 l42 43 88 -47 c48
-26 108 -58 133 -72 90 -49 169 -92 355 -192 105 -56 213 -115 240 -130 187
-103 233 -118 281 -94 77 38 91 125 36 211 -36 56 -69 141 -80 206 -9 56 -9
260 1 322 13 81 63 273 97 370 34 98 167 375 180 375 14 0 147 -281 185 -389
79 -230 105 -376 100 -556 -4 -158 -25 -235 -93 -338 -41 -62 -36 -134 12
-183 18 -17 69 -31 100 -27 24 3 135 60 305 155 19 11 69 38 110 59 42 22 94
50 116 62 22 13 90 49 150 81 61 32 115 62 120 66 6 4 58 33 118 64 l107 57
44 -44 c74 -75 191 -145 296 -176 57 -17 181 -27 248 -19 140 16 249 68 368
174 65 59 136 185 169 299 23 79 27 236 8 310 -8 31 -13 59 -11 61 3 2 218
119 479 260 261 141 491 267 511 281 47 32 63 82 49 153 -3 13 -48 57 -66 64
-11 5 -51 10 -89 12 -96 5 -175 27 -265 74 -147 76 -329 244 -469 433 -106
141 -121 167 -310 517 -103 191 -149 272 -190 333 -51 77 -146 186 -207 238
-22 19 -44 39 -50 45 -22 24 -145 104 -225 147 -122 65 -243 105 -425 143 -16
3 -97 8 -179 10 -122 3 -152 6 -167 20 -11 9 -19 22 -19 28 -1 17 -89 101
-148 139 l-53 35 88 63 c91 66 244 210 305 289 72 91 173 275 232 420 38 92
75 254 80 345 17 307 -161 487 -436 442 -267 -45 -648 -371 -870 -745 l-25
-43 -36 60 c-65 109 -181 255 -287 361 -121 122 -150 147 -236 206 -183 125
-343 179 -479 162z m210 -297 c238 -113 541 -444 643 -701 50 -127 66 -279 48
-453 -10 -103 -7 -100 -89 -70 -271 96 -529 328 -689 619 -99 178 -154 337
-164 470 -8 91 5 145 39 170 34 24 117 11 212 -35z m1872 27 c12 -13 24 -37
28 -55 8 -38 8 -127 0 -163 -3 -14 -8 -41 -11 -60 -23 -126 -138 -366 -240
-501 -44 -58 -189 -199 -233 -227 -14 -9 -28 -19 -31 -23 -31 -36 -394 -237
-403 -222 -8 13 -20 134 -20 203 -1 255 71 428 284 686 224 269 542 453 626
362z m-1314 -1531 c82 -48 137 -140 137 -228 0 -27 -2 -49 -5 -49 -3 0 -33 20
-67 46 -84 61 -175 112 -283 155 -49 20 -90 40 -90 45 0 4 25 21 55 36 48 24
65 27 131 24 61 -2 86 -8 122 -29z m769 14 c24 -10 52 -26 63 -34 19 -15 19
-15 -5 -25 -183 -75 -319 -146 -369 -193 -30 -28 -59 -40 -63 -27 -9 25 14
125 37 165 29 49 88 98 142 118 56 20 143 18 195 -4z m-1332 -255 c19 -4 49
-9 65 -12 59 -11 191 -57 260 -92 112 -55 201 -119 289 -206 169 -170 264
-357 312 -616 10 -49 9 -254 0 -320 -11 -79 -52 -214 -89 -295 -28 -62 -132
-258 -220 -415 -96 -173 -213 -435 -232 -520 -4 -16 -12 -30 -18 -30 -7 0 -37
14 -67 31 -30 17 -93 51 -140 76 -47 26 -215 117 -375 203 -396 214 -417 225
-525 282 -52 28 -99 54 -105 58 -5 4 -50 29 -100 55 -49 26 -137 73 -195 105
-58 31 -139 75 -180 97 -41 22 -95 52 -120 65 -25 14 -80 44 -123 67 -50 28
-75 47 -70 54 4 7 36 50 71 96 85 114 148 217 277 456 59 110 121 225 137 255
131 239 304 408 521 510 96 45 230 86 314 95 32 4 59 8 61 10 5 5 216 -3 252
-9z m1990 -1 c153 -24 361 -112 482 -204 152 -115 244 -231 373 -471 82 -152
124 -230 159 -292 14 -27 38 -69 52 -95 45 -81 134 -215 191 -286 65 -81 75
-64 -107 -163 -69 -37 -197 -106 -285 -154 -88 -48 -200 -109 -250 -135 -49
-27 -133 -72 -185 -100 -52 -28 -135 -73 -185 -100 -49 -26 -116 -63 -148 -81
-32 -19 -60 -34 -62 -34 -2 0 -97 -51 -212 -113 -114 -63 -248 -135 -298 -162
-49 -26 -117 -63 -151 -81 -33 -19 -65 -34 -70 -34 -5 0 -20 32 -32 71 -33
102 -102 259 -161 369 -29 52 -68 127 -88 167 l-37 72 46 88 c78 148 111 243
154 438 3 17 8 102 9 190 5 241 -32 410 -137 624 l-60 123 73 70 c162 153 371
257 585 292 81 13 264 14 344 1z m-3775 -1633 c17 -10 71 -40 120 -67 50 -26
119 -64 155 -83 36 -19 88 -47 115 -62 79 -43 153 -84 240 -130 44 -23 134
-72 200 -108 66 -36 147 -79 180 -97 179 -97 316 -171 360 -195 28 -15 80 -44
118 -64 37 -20 95 -51 130 -70 34 -18 87 -47 117 -63 30 -17 84 -46 120 -65
36 -19 105 -57 153 -83 l89 -48 -7 -35 c-20 -106 -25 -267 -11 -354 l6 -39
-42 22 c-24 12 -97 51 -163 87 -66 36 -147 79 -180 97 -33 18 -305 165 -605
327 -300 163 -603 327 -675 365 -71 39 -155 84 -185 100 -429 232 -620 336
-620 338 0 2 30 20 68 41 73 41 196 128 244 175 36 34 35 34 73 11z m5345 -46
c84 -68 161 -121 231 -156 23 -12 37 -25 33 -29 -5 -5 -47 -28 -94 -53 -47
-25 -137 -74 -200 -108 -63 -34 -142 -77 -175 -95 -33 -18 -116 -63 -185 -100
-69 -37 -156 -84 -195 -105 -54 -29 -808 -437 -1230 -665 -33 -18 -121 -65
-195 -105 -74 -40 -139 -76 -145 -80 -5 -4 -18 -10 -27 -13 -16 -5 -17 -1 -12
31 12 73 6 268 -11 363 -5 28 -3 30 355 222 36 19 90 48 120 65 30 16 249 134
485 262 593 320 574 310 630 340 28 15 140 76 250 135 110 60 218 119 240 131
22 13 41 23 43 24 2 0 39 -29 82 -64z m-4720 -1018 c43 -24 83 -46 285 -154
50 -26 103 -55 118 -64 l28 -17 -53 -36 c-239 -164 -538 -50 -603 228 -10 45
-12 70 -7 143 2 23 5 22 95 -26 50 -27 112 -60 137 -74z m4213 103 c8 -32 -3
-139 -19 -188 -85 -248 -358 -336 -587 -189 -26 17 -46 35 -44 41 3 9 140 85
403 226 62 32 138 74 170 93 71 41 70 41 77 17z"/>
<path d="M2380 4124 c-94 -16 -102 -18 -174 -43 -197 -69 -382 -223 -486 -406
-43 -76 -34 -149 24 -184 77 -48 141 -26 203 71 193 295 548 402 860 258 75
-35 116 -38 160 -10 68 41 80 129 26 192 -35 40 -189 99 -323 123 -67 12 -216
12 -290 -1z"/>
<path d="M4304 4119 c-93 -17 -227 -67 -277 -101 -73 -52 -71 -161 5 -208 45
-28 84 -25 162 10 261 118 561 65 762 -137 53 -53 114 -134 114 -152 0 -5 16
-22 36 -37 83 -63 204 -5 204 99 0 49 -86 182 -175 272 -108 109 -313 223
-446 249 -19 3 -45 9 -59 12 -64 14 -239 10 -326 -7z"/>
</g>
</svg>
